<svg width="148" height="164" viewBox="0 0 148 164" fill="none" xmlns="http://www.w3.org/2000/svg">
<path fill-rule="evenodd" clip-rule="evenodd" d="M63.2804 2.86771C69.9137 -0.955904 78.0863 -0.955904 84.7196 2.86771L137.28 33.1652C143.914 36.9889 148 44.0552 148 51.7025V112.298C148 119.945 143.914 127.011 137.28 130.835L84.7196 161.132C78.0863 164.956 69.9137 164.956 63.2804 161.132L10.7196 130.835C4.0863 127.011 0 119.945 0 112.298V51.7025C0 44.0552 4.0863 36.9889 10.7196 33.1653L63.2804 2.86771ZM63.2804 14.4354C69.9137 10.6117 78.0863 10.6117 84.7196 14.4354L127.246 38.9491C133.88 42.7727 137.966 49.839 137.966 57.4863V106.514C137.966 114.161 133.88 121.227 127.246 125.051L85.4541 149.141L85.6587 98.799C85.669 96.2709 86.0616 93.759 86.8231 91.348L87.3515 90.1772C88.1256 88.462 89.4474 87.0515 91.11 86.1662C93.1418 85.0843 95.5256 84.8695 97.7185 85.5708L99.6482 86.1879C100.665 86.4418 101.71 86.5718 102.758 86.575L103.094 86.5761H103.43C104.585 86.5761 105.714 86.2416 106.682 85.6131L107.01 85.4003C108.289 84.5703 109.131 83.2157 109.309 81.7037L109.369 81.1986C109.397 80.9621 109.384 80.7225 109.333 80.49C109.148 79.6598 108.485 79.0198 107.647 78.8636L98.5217 77.1604C97.6789 77.0031 96.8498 76.7792 96.0424 76.4907L88.5535 73.8149C87.4195 73.4097 86.4112 72.7161 85.6281 71.8025L85.0829 71.1662C84.7169 70.7393 84.4594 70.2291 84.3326 69.6817C84.0925 68.6443 84.3403 67.5516 85.0065 66.7202C85.7765 65.7592 86.9974 65.2755 88.2178 65.448L103.266 67.574C105.427 67.8794 107.628 67.7607 109.744 67.2245L112.207 66.6004C112.95 66.4123 113.642 66.0648 114.237 65.5821C115.314 64.7067 116.002 63.4418 116.15 62.0627L116.251 61.1212C116.409 59.6482 116.997 58.2541 117.942 57.112L119.287 55.4867C119.832 54.8278 120.13 53.9997 120.13 53.145V53.1116C120.13 51.9259 119.548 50.8157 118.571 50.1409C117.966 49.7227 117.248 49.4987 116.512 49.4987H110.932C109.665 49.4987 108.401 49.3868 107.154 49.1644L106.801 49.1015C104.721 48.7304 102.694 48.1028 100.769 47.2331L97.734 45.8625L96.9622 45.5661C94.1628 44.4912 91.2851 43.6318 88.3543 42.9957L87.5439 42.8713C84.773 42.4456 81.9667 42.2953 79.1661 42.4224L76.5232 42.6768C75.6659 42.7592 74.826 42.3979 74.2972 41.7192C73.9779 41.3093 73.7938 40.8106 73.7702 40.2919L73.6873 38.4732C73.6395 37.4209 73.7942 36.3691 74.1431 35.375L74.7046 33.7756C74.8504 33.3603 74.6838 32.8999 74.3058 32.6735C74.1077 32.5548 73.8723 32.5141 73.6457 32.5593L71.8392 32.9201C71.3705 33.0136 70.9301 33.2149 70.5529 33.5078C69.8254 34.0727 69.3897 34.9333 69.3655 35.8531L69.2197 41.3848C69.2149 41.5631 69.1419 41.7329 69.0155 41.8591L68.9716 41.9029C68.6946 42.1795 68.2363 42.147 68.0012 41.834C67.9176 41.7227 67.8724 41.5874 67.8724 41.4482V35.6889C67.8724 35.0885 67.9693 34.492 68.1595 33.9224L68.2448 33.6667C68.3685 33.2963 68.2719 32.888 67.9955 32.6119C67.6911 32.3081 67.23 32.2246 66.8382 32.4024L65.3839 33.0623C63.9929 33.6936 62.7351 34.5838 61.6779 35.6852L61.0875 36.3003C59.6265 37.8224 58.4725 39.6108 57.6883 41.5682L57.2385 42.6908C56.2947 45.0464 55.7539 47.5436 55.6385 50.0781L55.6314 50.2354C55.4983 53.1586 54.8217 56.0315 53.6362 58.7076L52.7248 60.7648C51.597 63.3104 50.1739 65.7151 48.4848 67.9296L22.584 101.884L13.5086 114.664C13.0426 115.222 12.7148 115.864 12.5323 116.542C10.9184 113.504 10.0339 110.071 10.0339 106.514V57.4863C10.0339 49.839 14.1202 42.7727 20.7535 38.9491L63.2804 14.4354ZM90.1253 47.5827C89.5882 47.5827 89.0566 47.6916 88.5629 47.9029C88.171 48.0705 87.8088 48.3002 87.4902 48.583L86.843 49.1573C86.4486 49.5072 86.1065 49.9117 85.8269 50.3584L85.5231 50.8435C85.3699 51.0884 85.2623 51.3589 85.2056 51.6421L85.1618 51.8605C85.121 52.0639 85.126 52.2738 85.1765 52.4751C85.251 52.7727 85.4213 53.0377 85.6612 53.2293L85.7634 53.311C86.0721 53.5575 86.4712 53.6613 86.8611 53.5964C87.2057 53.5391 87.516 53.3544 87.7305 53.0791L88.4728 52.1263C88.6483 51.901 88.8497 51.6971 89.0729 51.5189L89.4068 51.2522C89.5961 51.101 89.8158 50.9924 90.0509 50.9337C90.3193 50.8667 90.6001 50.8667 90.8685 50.9337L91.2254 51.0227C91.5976 51.1466 91.9178 51.3908 92.1354 51.7167L93.0813 53.1333C93.242 53.3739 93.4894 53.5468 93.7704 53.6169C93.9822 53.6698 94.2067 53.6617 94.4138 53.5928C94.5829 53.5365 94.7366 53.4417 94.8626 53.3159L94.9352 53.2434C95.1381 53.0409 95.282 52.7871 95.3516 52.5092L95.3778 52.4047C95.3992 52.3192 95.4148 52.2324 95.4246 52.145C95.4326 52.0726 95.4367 51.9999 95.4367 51.927V51.7109C95.4367 51.1327 95.3001 50.5589 95.0411 50.0417C94.9228 49.8056 94.7791 49.581 94.6139 49.3748L94.589 49.3437C94.2637 48.9378 93.8646 48.5969 93.4125 48.339L93.3192 48.2858C92.946 48.0729 92.5453 47.9121 92.1283 47.808L91.9216 47.7564C91.4592 47.641 90.9844 47.5827 90.5078 47.5827H90.1253ZM44.3494 79.039C46.1292 76.7439 48.5886 75.6691 49.8424 76.6384C51.0963 77.6077 50.6699 80.254 48.8901 82.5491C47.1102 84.8442 44.6508 85.919 43.397 84.9497C42.1431 83.9804 42.5695 81.3341 44.3494 79.039ZM49.8424 103.686C48.5886 102.716 46.1292 103.791 44.3494 106.086C42.5695 108.381 42.1431 111.028 43.397 111.997C44.6508 112.966 47.1102 111.892 48.8901 109.596C50.6699 107.301 51.0963 104.655 49.8424 103.686ZM44.7322 91.9438C46.5121 89.6487 48.9714 88.5739 50.2253 89.5432C51.4792 90.5125 51.0528 93.1588 49.2729 95.4539C47.493 97.749 45.0337 98.8237 43.7798 97.8545C42.526 96.8852 42.9524 94.2389 44.7322 91.9438ZM63.3309 86.4853C62.0771 85.5161 59.6177 86.5908 57.8378 88.8859C56.058 91.181 55.6316 93.8273 56.8855 94.7966C58.1393 95.7659 60.5986 94.6911 62.3785 92.396C64.1584 90.1009 64.5848 87.4546 63.3309 86.4853ZM57.7489 74.7628C59.5287 72.4677 61.9881 71.3929 63.2419 72.3622C64.4958 73.3315 64.0694 75.9778 62.2896 78.2729C60.5097 80.568 58.0503 81.6428 56.7965 80.6735C55.5426 79.7042 55.969 77.0579 57.7489 74.7628ZM37.2976 92.2188C36.0438 91.2495 33.5844 92.3243 31.8045 94.6194C30.0247 96.9145 29.5983 99.5608 30.8522 100.53C32.106 101.499 34.5653 100.425 36.3452 98.1295C38.1251 95.8344 38.5515 93.1881 37.2976 92.2188ZM31.8045 106.086C33.5844 103.791 36.0438 102.716 37.2976 103.686C38.5515 104.655 38.1251 107.301 36.3452 109.596C34.5653 111.892 32.106 112.966 30.8522 111.997C29.5983 111.028 30.0247 108.381 31.8045 106.086Z" fill="#04D361"/>
</svg>
