<svg width="147" height="164" viewBox="0 0 147 164" fill="none" xmlns="http://www.w3.org/2000/svg">
<path fill-rule="evenodd" clip-rule="evenodd" d="M62.8528 2.86771C69.4413 -0.955905 77.5586 -0.955905 84.1472 2.86771L136.353 33.1652C142.941 36.9889 147 44.0552 147 51.7025V112.298C147 119.945 142.941 127.011 136.353 130.835L84.1472 161.132C77.5587 164.956 69.4413 164.956 62.8528 161.132L10.6472 130.835C4.05869 127.011 0 119.945 0 112.298V51.7025C0 44.0552 4.05869 36.9889 10.6472 33.1653L62.8528 2.86771ZM62.8528 14.4354C69.4413 10.6117 77.5586 10.6117 84.1472 14.4354L126.387 38.9491C132.975 42.7727 137.034 49.839 137.034 57.4863V106.514C137.034 114.161 132.975 121.227 126.387 125.051L106.287 137.917L84.8767 149.141L85.0799 98.7989C85.0901 96.2709 85.4801 93.759 86.2364 91.348L86.7613 90.1772C87.5302 88.462 88.843 87.0514 90.4944 86.1662C92.5124 85.0843 94.8802 84.8695 97.0582 85.5708L98.9749 86.1879C99.9852 86.4418 101.022 86.5718 102.064 86.575L102.397 86.5761H102.731C103.878 86.5761 105 86.2416 105.962 85.6131L106.287 85.4003C107.557 84.5703 108.394 83.2157 108.571 81.7037L108.63 81.1986C108.657 80.9621 108.645 80.7225 108.594 80.49C108.41 79.6598 107.752 79.0198 106.92 78.8636L97.8561 77.1604C97.0189 77.0031 96.1954 76.7792 95.3935 76.4907L87.9552 73.8149C86.8289 73.4097 85.8274 72.7161 85.0496 71.8025L84.508 71.1662C84.1445 70.7393 83.8887 70.2291 83.7628 69.6817C83.5243 68.6443 83.7705 67.5516 84.4321 66.7202C85.197 65.7592 86.4096 65.2755 87.6218 65.448L102.568 67.574C104.715 67.8794 106.901 67.7607 109.003 67.2245L111.449 66.6004C112.187 66.4123 112.875 66.0648 113.465 65.5821C114.535 64.7067 115.218 63.4418 115.365 62.0627L115.465 61.1212C115.623 59.6482 116.207 58.2541 117.145 57.112L118.481 55.4867C119.022 54.8278 119.319 53.9997 119.319 53.145V53.1116C119.319 51.9259 118.74 50.8157 117.77 50.1409C117.169 49.7227 116.455 49.4987 115.724 49.4987H110.182C108.924 49.4987 107.668 49.3868 106.43 49.1644L106.079 49.1015C104.013 48.7304 102 48.1028 100.088 47.2331L97.0736 45.8625L96.307 45.5661C93.5266 44.4912 90.6683 43.6318 87.7573 42.9957L86.9524 42.8713C84.2002 42.4456 81.4129 42.2953 78.6312 42.4224L76.0061 42.6768C75.1546 42.7592 74.3204 42.3979 73.7952 41.7192C73.478 41.3093 73.2952 40.8106 73.2717 40.2919L73.1895 38.4732C73.1419 37.4209 73.2956 36.3691 73.6422 35.375L74.1998 33.7756C74.3446 33.3603 74.1792 32.8999 73.8038 32.6735C73.6069 32.5548 73.3731 32.5141 73.1481 32.5593L71.3538 32.9201C70.8883 33.0136 70.4508 33.2149 70.0762 33.5078C69.3536 34.0727 68.9208 34.9333 68.8968 35.8531L68.752 41.3848C68.7473 41.5631 68.6747 41.7329 68.5492 41.859L68.5056 41.9029C68.2304 42.1795 67.7752 42.147 67.5417 41.834C67.4587 41.7227 67.4138 41.5874 67.4138 41.4482V35.6889C67.4138 35.0885 67.5101 34.492 67.699 33.9224L67.7837 33.6667C67.9066 33.2963 67.8106 32.888 67.536 32.6119C67.2338 32.3081 66.7757 32.2246 66.3866 32.4024L64.9421 33.0623C63.5605 33.6936 62.3112 34.5838 61.2612 35.6852L60.6747 36.3003C59.2236 37.8224 58.0774 39.6108 57.2985 41.5682L56.8518 42.6908C55.9144 45.0464 55.3772 47.5436 55.2626 50.0781L55.2555 50.2354C55.1233 53.1586 54.4513 56.0315 53.2737 58.7076L52.3685 60.7648C51.2484 63.3104 49.8349 65.7151 48.1572 67.9296L22.4314 101.884L13.4173 114.664C12.9545 115.222 12.6288 115.864 12.4476 116.542C10.8446 113.504 9.96612 110.071 9.96612 106.514V57.4863C9.96612 49.839 14.0248 42.7727 20.6133 38.9491L62.8528 14.4354ZM89.5164 47.5826C88.9828 47.5826 88.4548 47.6916 87.9645 47.9028C87.5753 48.0705 87.2155 48.3002 86.899 48.583L86.2562 49.1573C85.8645 49.5072 85.5247 49.9117 85.2469 50.3584L84.9453 50.8435C84.7931 51.0884 84.6862 51.3589 84.6299 51.6421L84.5864 51.8605C84.5459 52.0639 84.5509 52.2738 84.601 52.4751C84.6749 52.7727 84.8441 53.0377 85.0824 53.2293L85.184 53.311C85.4905 53.5575 85.887 53.6613 86.2742 53.5964C86.6165 53.5391 86.9247 53.3544 87.1377 53.0791L87.875 52.1263C88.0493 51.901 88.2494 51.6971 88.471 51.5189L88.8027 51.2522C88.9907 51.101 89.2089 50.9924 89.4425 50.9337C89.7091 50.8667 89.9879 50.8667 90.2546 50.9337L90.609 51.0227C90.9787 51.1466 91.2967 51.3908 91.5129 51.7167L92.4524 53.1333C92.612 53.3739 92.8577 53.5468 93.1368 53.6169C93.3472 53.6698 93.5702 53.6617 93.7759 53.5928C93.9439 53.5365 94.0965 53.4417 94.2217 53.3159L94.2938 53.2434C94.4953 53.0409 94.6382 52.7871 94.7073 52.5092L94.7333 52.4047C94.7546 52.3192 94.7701 52.2324 94.7798 52.145C94.7878 52.0726 94.7918 51.9999 94.7918 51.927V51.7109C94.7918 51.1327 94.6561 50.5589 94.3989 50.0417C94.2815 49.8056 94.1387 49.581 93.9746 49.3748L93.9499 49.3437C93.6268 48.9378 93.2304 48.5969 92.7814 48.339L92.6886 48.2858C92.318 48.0728 91.92 47.9121 91.5058 47.808L91.3005 47.7564C90.8412 47.641 90.3696 47.5826 89.8962 47.5826H89.5164ZM44.0497 79.039C45.8175 76.7439 48.2603 75.6691 49.5057 76.6384C50.7511 77.6077 50.3276 80.254 48.5597 82.5491C46.7919 84.8442 44.3492 85.919 43.1038 84.9497C41.8584 83.9804 42.2819 81.3341 44.0497 79.039ZM49.5057 103.686C48.2603 102.716 45.8175 103.791 44.0497 106.086C42.2819 108.381 41.8584 111.028 43.1038 111.997C44.3492 112.966 46.7919 111.892 48.5597 109.596C50.3276 107.301 50.7511 104.655 49.5057 103.686ZM44.43 91.9438C46.1978 89.6487 48.6405 88.5739 49.8859 89.5432C51.1313 90.5125 50.7078 93.1588 48.94 95.4539C47.1721 97.749 44.7294 98.8237 43.484 97.8545C42.2386 96.8852 42.6621 94.2389 44.43 91.9438ZM62.903 86.4853C61.6576 85.5161 59.2149 86.5908 57.447 88.8859C55.6792 91.181 55.2557 93.8273 56.5011 94.7966C57.7465 95.7659 60.1892 94.6911 61.9571 92.396C63.7249 90.1009 64.1484 87.4546 62.903 86.4853ZM57.3587 74.7628C59.1265 72.4677 61.5692 71.3929 62.8146 72.3622C64.06 73.3315 63.6365 75.9778 61.8687 78.2729C60.1008 80.568 57.6581 81.6427 56.4127 80.6735C55.1673 79.7042 55.5908 77.0579 57.3587 74.7628ZM37.0456 92.2188C35.8002 91.2495 33.3575 92.3243 31.5896 94.6194C29.8218 96.9145 29.3983 99.5608 30.6437 100.53C31.8891 101.499 34.3318 100.425 36.0997 98.1295C37.8675 95.8344 38.291 93.1881 37.0456 92.2188ZM31.5896 106.086C33.3575 103.791 35.8002 102.716 37.0456 103.686C38.291 104.655 37.8675 107.301 36.0997 109.596C34.3318 111.892 31.8891 112.966 30.6437 111.997C29.3983 111.028 29.8218 108.381 31.5896 106.086Z" fill="#04D361"/>
</svg>
