<svg width="12" height="13" viewBox="0 0 12 13" fill="none" xmlns="http://www.w3.org/2000/svg">
<rect width="12" height="13" fill="#1B1B1B"/>
<path fill-rule="evenodd" clip-rule="evenodd" d="M5.13084 0.227319C5.66868 -0.0757729 6.33132 -0.0757729 6.86916 0.227319L11.1308 2.62895C11.6687 2.93204 12 3.49218 12 4.09837V8.90163C12 9.50782 11.6687 10.068 11.1308 10.371L6.86916 12.7727C6.33132 13.0758 5.66868 13.0758 5.13084 12.7727L0.869156 10.371C0.331322 10.068 0 9.50782 0 8.90163V4.09837C0 3.49218 0.331322 2.93204 0.869156 2.62895L5.13084 0.227319ZM5.13084 1.14427C5.66868 0.841173 6.33132 0.841173 6.86916 1.14427L10.3173 3.08743C10.8551 3.39052 11.1864 3.95066 11.1864 4.55684V8.44316C11.1864 9.04934 10.8551 9.60948 10.3173 9.91257L6.92871 11.8222L6.9453 7.83162C6.94613 7.63123 6.97796 7.43211 7.03971 7.241L7.08255 7.14819C7.14532 7.01223 7.25249 6.90042 7.3873 6.83024C7.55203 6.74449 7.74532 6.72746 7.92312 6.78305L8.07958 6.83196C8.16205 6.85209 8.24672 6.86239 8.33173 6.86266L8.35895 6.86274H8.38622C8.47984 6.86274 8.57144 6.83622 8.64992 6.78641L8.6765 6.76953C8.78016 6.70374 8.84846 6.59636 8.86291 6.47651L8.86773 6.43648C8.86999 6.41772 8.869 6.39873 8.86481 6.3803C8.84982 6.3145 8.79606 6.26377 8.72817 6.25138L7.98825 6.11637C7.91991 6.1039 7.85269 6.08615 7.78722 6.06329L7.18001 5.85118C7.08807 5.81906 7.00631 5.76408 6.94282 5.69166L6.89861 5.64122C6.86894 5.60738 6.84806 5.56694 6.83778 5.52355C6.81831 5.44132 6.83841 5.3547 6.89242 5.28879C6.95485 5.21262 7.05385 5.17428 7.1528 5.18795L8.37289 5.35647C8.54817 5.38068 8.72661 5.37127 8.8982 5.32877L9.0979 5.2793C9.15811 5.26439 9.21425 5.23684 9.26243 5.19858C9.3498 5.12919 9.40556 5.02892 9.41756 4.9196L9.42575 4.84497C9.43858 4.72821 9.48626 4.6177 9.56288 4.52717L9.67191 4.39834C9.71612 4.3461 9.7403 4.28047 9.7403 4.21272V4.21006C9.7403 4.11607 9.69306 4.02807 9.61388 3.97458C9.56482 3.94143 9.50657 3.92367 9.4469 3.92367H8.99448C8.89176 3.92367 8.78925 3.91481 8.68814 3.89718L8.65954 3.89219C8.49085 3.86278 8.32656 3.81303 8.17042 3.74409L7.92437 3.63544L7.8618 3.61195C7.63483 3.52674 7.4015 3.45862 7.16386 3.4082L7.09816 3.39833C6.87349 3.36459 6.64595 3.35268 6.41887 3.36275L6.20458 3.38291C6.13507 3.38945 6.06697 3.36081 6.0241 3.30701C5.99821 3.27452 5.98328 3.23499 5.98136 3.19387L5.97465 3.0497C5.97077 2.96629 5.98331 2.88292 6.01161 2.80411L6.05713 2.67734C6.06895 2.64441 6.05544 2.60792 6.0248 2.58997C6.00873 2.58056 5.98964 2.57734 5.97127 2.58092L5.8248 2.60952C5.7868 2.61693 5.75109 2.63289 5.7205 2.65611C5.66152 2.70089 5.62619 2.7691 5.62423 2.84202L5.6124 3.2805C5.61202 3.29464 5.6061 3.30809 5.59585 3.3181L5.5923 3.32157C5.56983 3.3435 5.53267 3.34092 5.51361 3.31611C5.50683 3.30729 5.50316 3.29656 5.50316 3.28553V2.829C5.50316 2.7814 5.51103 2.73412 5.52645 2.68897L5.53337 2.6687C5.5434 2.63934 5.53556 2.60697 5.51315 2.58509C5.48847 2.561 5.45108 2.55439 5.41931 2.56848L5.3014 2.6208C5.18861 2.67084 5.08663 2.7414 5.00091 2.8287L4.95304 2.87746C4.83458 2.99811 4.74101 3.13988 4.67743 3.29504L4.64096 3.38402C4.56444 3.57075 4.52059 3.7687 4.51123 3.9696L4.51065 3.98207C4.49986 4.21379 4.445 4.44152 4.34888 4.65365L4.27498 4.81672C4.18354 5.01851 4.06816 5.20912 3.9312 5.38466L1.83114 8.0762L1.09529 9.08923C1.05751 9.13348 1.03093 9.18438 1.01613 9.23807C0.885272 8.99723 0.813561 8.72518 0.813561 8.44316V4.55684C0.813561 3.95066 1.14488 3.39052 1.68272 3.08743L5.13084 1.14427ZM7.30746 3.7718C7.26391 3.7718 7.2208 3.78043 7.18077 3.79718C7.149 3.81047 7.11963 3.82867 7.0938 3.85109L7.04132 3.89661C7.00935 3.92435 6.98161 3.95642 6.95893 3.99183L6.93431 4.03028C6.92188 4.04969 6.91316 4.07113 6.90856 4.09358L6.90501 4.11089C6.90171 4.12702 6.90211 4.14366 6.9062 4.15961C6.91224 4.1832 6.92605 4.20421 6.94551 4.2194L6.95379 4.22587C6.97882 4.24541 7.01118 4.25364 7.04279 4.24849C7.07073 4.24395 7.0959 4.22931 7.11328 4.20749L7.17347 4.13196C7.1877 4.11411 7.20403 4.09794 7.22213 4.08381L7.2492 4.06267C7.26455 4.05069 7.28236 4.04208 7.30143 4.03742C7.32319 4.03211 7.34595 4.03211 7.36772 4.03742L7.39665 4.04448C7.42683 4.0543 7.4528 4.07366 7.47044 4.0995L7.54714 4.21178C7.56016 4.23086 7.58022 4.24456 7.60301 4.25012C7.62018 4.25431 7.63838 4.25367 7.65518 4.24821C7.66889 4.24375 7.68135 4.23623 7.69157 4.22626L7.69745 4.22051C7.7139 4.20446 7.72557 4.18434 7.73121 4.16232L7.73333 4.15403C7.73507 4.14725 7.73633 4.14037 7.73713 4.13344C7.73778 4.12771 7.73811 4.12194 7.73811 4.11616V4.09904C7.73811 4.0532 7.72703 4.00772 7.70603 3.96672C7.69645 3.948 7.68479 3.9302 7.6714 3.91386L7.66938 3.91139C7.64301 3.87922 7.61064 3.8522 7.57399 3.83175L7.56642 3.82753C7.53616 3.81065 7.50368 3.79791 7.46987 3.78966L7.45311 3.78557C7.41561 3.77642 7.37711 3.7718 7.33847 3.7718H7.30746ZM3.59589 6.26529C3.74021 6.08336 3.93961 5.99816 4.04128 6.075C4.14294 6.15183 4.10837 6.3616 3.96406 6.54353C3.81974 6.72545 3.62034 6.81065 3.51867 6.73382C3.41701 6.65698 3.45158 6.44722 3.59589 6.26529ZM4.04128 8.21899C3.93961 8.14216 3.74021 8.22735 3.59589 8.40928C3.45158 8.59121 3.41701 8.80098 3.51867 8.87781C3.62034 8.95465 3.81974 8.86945 3.96406 8.68752C4.10837 8.50559 4.14294 8.29583 4.04128 8.21899ZM3.62694 7.28823C3.77125 7.1063 3.97066 7.0211 4.07232 7.09793C4.17399 7.17477 4.13941 7.38454 3.9951 7.56647C3.85078 7.74839 3.65138 7.83359 3.54972 7.75676C3.44805 7.67992 3.48262 7.47016 3.62694 7.28823ZM5.13494 6.85554C5.03327 6.77871 4.83387 6.86391 4.68955 7.04583C4.54524 7.22776 4.51067 7.43753 4.61233 7.51437C4.714 7.5912 4.9134 7.506 5.05772 7.32408C5.20203 7.14215 5.2366 6.93238 5.13494 6.85554ZM4.68234 5.92632C4.82665 5.74439 5.02606 5.65919 5.12772 5.73603C5.22939 5.81286 5.19482 6.02263 5.0505 6.20456C4.90619 6.38649 4.70678 6.47168 4.60512 6.39485C4.50346 6.31801 4.53803 6.10825 4.68234 5.92632ZM3.02413 7.31003C2.92247 7.23319 2.72306 7.31839 2.57875 7.50032C2.43443 7.68225 2.39986 7.89201 2.50153 7.96885C2.60319 8.04568 2.80259 7.96049 2.94691 7.77856C3.09122 7.59663 3.1258 7.38686 3.02413 7.31003ZM2.57875 8.40928C2.72306 8.22735 2.92247 8.14216 3.02413 8.21899C3.1258 8.29583 3.09122 8.50559 2.94691 8.68752C2.80259 8.86945 2.60319 8.95465 2.50153 8.87781C2.39986 8.80098 2.43443 8.59121 2.57875 8.40928Z" fill="#04D361"/>
</svg>
